<svg width="80" height="80" viewBox="0 0 80 80" fill="none" xmlns="http://www.w3.org/2000/svg">
<path d="M6.7998 7.77816V71.4296C6.80192 72.7567 7.33528 74.0287 8.28301 74.9671C9.23074 75.9054 10.5155 76.4335 11.8558 76.4356H68.1438C69.4841 76.4335 70.7689 75.9054 71.7166 74.9671C72.6643 74.0287 73.1977 72.7567 73.1998 71.4296V7.77816C73.1977 6.45114 72.6643 5.17908 71.7166 4.24074C70.7689 3.30239 69.4841 2.77431 68.1438 2.77222H11.8558C10.5155 2.77431 9.23074 3.30239 8.28301 4.24074C7.33528 5.17908 6.80192 6.45114 6.7998 7.77816ZM70.7998 7.77816V71.4296C70.7998 72.1271 70.52 72.796 70.0219 73.2891C69.5238 73.7823 68.8482 74.0593 68.1438 74.0593H11.8558C11.1514 74.0593 10.4758 73.7823 9.97773 73.2891C9.47963 72.796 9.1998 72.1271 9.1998 71.4296V7.77816C9.1998 7.08072 9.47963 6.41184 9.97773 5.91868C10.4758 5.42551 11.1514 5.14845 11.8558 5.14845H68.1438C68.8482 5.14845 69.5238 5.42551 70.0219 5.91868C70.52 6.41184 70.7998 7.08072 70.7998 7.77816Z" fill="#CA0000"/>
<path d="M18.712 58.2099H61.288C62.4917 58.2099 63.6463 57.737 64.4982 56.895C65.3502 56.053 65.8299 54.9106 65.832 53.7188V14.1782C65.8299 12.9856 65.3504 11.8425 64.4987 10.9992C63.647 10.156 62.4925 9.68129 61.288 9.6792H18.712C17.5075 9.68129 16.3529 10.156 15.5012 10.9992C14.6495 11.8425 14.1701 12.9856 14.168 14.1782V53.7188C14.1701 54.9106 14.6498 56.053 15.5017 56.895C16.3536 57.737 17.5082 58.2099 18.712 58.2099ZM16.568 14.1782C16.568 13.6152 16.7939 13.0753 17.1959 12.6772C17.598 12.2791 18.1433 12.0554 18.712 12.0554H61.288C61.5695 12.0554 61.8483 12.1103 62.1084 12.217C62.3686 12.3237 62.6049 12.4801 62.804 12.6772C63.0031 12.8743 63.161 13.1083 63.2688 13.3659C63.3765 13.6234 63.432 13.8994 63.432 14.1782V53.7188C63.4299 54.2804 63.203 54.8183 62.8012 55.2147C62.3993 55.6111 61.8552 55.8337 61.288 55.8337H18.712C18.1447 55.8337 17.6006 55.6111 17.1988 55.2147C16.7969 54.8183 16.5701 54.2804 16.568 53.7188V14.1782Z" fill="#CA0000"/>
<path d="M19.3998 71.5248C20.5074 71.5248 21.5901 71.1996 22.511 70.5904C23.4319 69.9811 24.1497 69.1152 24.5735 68.102C24.9974 67.0889 25.1083 65.9741 24.8922 64.8985C24.6761 63.823 24.1428 62.8351 23.3596 62.0596C22.5764 61.2842 21.5786 60.7561 20.4923 60.5422C19.406 60.3283 18.28 60.4381 17.2568 60.8577C16.2335 61.2774 15.3589 61.988 14.7436 62.8998C14.1282 63.8116 13.7998 64.8836 13.7998 65.9802C13.7998 67.4507 14.3898 68.861 15.44 69.9008C16.4902 70.9406 17.9146 71.5248 19.3998 71.5248ZM19.3998 62.8753C20.0327 62.8753 20.6514 63.0611 21.1776 63.4092C21.7039 63.7574 22.114 64.2522 22.3562 64.8311C22.5984 65.4101 22.6618 66.0471 22.5383 66.6617C22.4148 67.2763 22.1101 67.8408 21.6625 68.2839C21.215 68.727 20.6448 69.0288 20.0241 69.151C19.4034 69.2733 18.7599 69.2105 18.1752 68.9707C17.5905 68.7309 17.0907 68.3248 16.7391 67.8038C16.3875 67.2828 16.1998 66.6702 16.1998 66.0436C16.1998 65.2033 16.5369 64.3974 17.1371 63.8033C17.7372 63.2091 18.5511 62.8753 19.3998 62.8753Z" fill="#CA0000"/>
<path d="M32.512 61.9564C31.7019 61.9564 30.91 62.1943 30.2364 62.6399C29.5628 63.0855 29.0378 63.7189 28.7278 64.4599C28.4178 65.2009 28.3367 66.0164 28.4947 66.803C28.6528 67.5897 29.0429 68.3123 29.6157 68.8795C30.1885 69.4467 30.9184 69.8329 31.7129 69.9894C32.5075 70.1459 33.331 70.0656 34.0795 69.7586C34.8279 69.4517 35.4676 68.9319 35.9177 68.2649C36.3678 67.598 36.608 66.814 36.608 66.0119C36.608 64.9363 36.1765 63.9048 35.4083 63.1442C34.6402 62.3837 33.5983 61.9564 32.512 61.9564ZM32.512 67.6911C32.1766 67.6911 31.8487 67.5926 31.5698 67.4081C31.2909 67.2236 31.0735 66.9613 30.9451 66.6545C30.8168 66.3476 30.7832 66.01 30.8486 65.6843C30.914 65.3585 31.0756 65.0593 31.3128 64.8245C31.55 64.5896 31.8522 64.4297 32.1811 64.3649C32.5101 64.3001 32.8511 64.3334 33.1611 64.4605C33.471 64.5876 33.7358 64.8028 33.9222 65.0789C34.1086 65.3551 34.208 65.6797 34.208 66.0119C34.208 66.4572 34.0293 66.8843 33.7113 67.1992C33.3932 67.5142 32.9618 67.6911 32.512 67.6911Z" fill="#CA0000"/>
<path d="M44.0004 61.8297C43.1649 61.8297 42.3483 62.075 41.6536 62.5345C40.959 62.9941 40.4176 63.6473 40.0979 64.4114C39.7782 65.1756 39.6945 66.0165 39.8575 66.8278C40.0205 67.6391 40.4228 68.3842 41.0135 68.9691C41.6043 69.554 42.3569 69.9523 43.1763 70.1137C43.9957 70.2751 44.845 70.1923 45.6168 69.8757C46.3887 69.5592 47.0484 69.0231 47.5125 68.3354C47.9766 67.6476 48.2244 66.839 48.2244 66.0119C48.2223 64.9033 47.7766 63.8408 46.9849 63.057C46.1932 62.2731 45.12 61.8318 44.0004 61.8297ZM44.0004 67.8178C43.6396 67.8178 43.287 67.7119 42.987 67.5135C42.6871 67.315 42.4533 67.033 42.3152 66.703C42.1772 66.373 42.141 66.0099 42.2114 65.6596C42.2818 65.3093 42.4555 64.9875 42.7106 64.7349C42.9657 64.4823 43.2907 64.3103 43.6445 64.2407C43.9983 64.171 44.3651 64.2067 44.6984 64.3434C45.0317 64.4801 45.3165 64.7116 45.517 65.0086C45.7174 65.3056 45.8244 65.6547 45.8244 66.0119C45.8223 66.4902 45.6294 66.9483 45.2878 67.2866C44.9462 67.6248 44.4835 67.8157 44.0004 67.8178Z" fill="#CA0000"/>
<path d="M19.9119 33.9723H29.0399C29.273 33.9728 29.5013 33.9065 29.6972 33.7814C29.8931 33.6563 30.0482 33.4778 30.1439 33.2674L30.3999 32.6892L34.8079 22.7961L39.0079 32.602L44.5279 45.4733C44.6204 45.6873 44.7743 45.8697 44.9706 45.9979C45.1669 46.126 45.3968 46.1942 45.6319 46.1941H45.6719C45.9132 46.1876 46.1467 46.1083 46.3412 45.9667C46.5356 45.8251 46.6817 45.6281 46.7599 45.402L51.2479 32.4753L52.0959 30.0278L53.1039 32.4753L53.2639 32.8555C53.3539 33.0725 53.5068 33.2582 53.7033 33.3893C53.8997 33.5204 54.131 33.591 54.3679 33.5921H60.1599C60.4782 33.5921 60.7834 33.4669 61.0084 33.2441C61.2335 33.0213 61.3599 32.7191 61.3599 32.404C61.3599 32.0889 61.2335 31.7867 61.0084 31.5639C60.7834 31.3411 60.4782 31.2159 60.1599 31.2159H55.1999L53.1359 26.2258C53.0467 26.0018 52.8896 25.8106 52.6862 25.6787C52.4827 25.5468 52.243 25.4806 51.9999 25.4892C51.7567 25.4958 51.5213 25.5749 51.3243 25.7162C51.1273 25.8576 50.978 26.0545 50.8959 26.2812L48.7359 32.507L45.5359 41.6872L41.5999 32.5783L35.9359 19.3347C35.8431 19.1225 35.6902 18.9415 35.4957 18.8136C35.3012 18.6857 35.0734 18.6163 34.8399 18.6139C34.6057 18.6129 34.3761 18.6789 34.1789 18.8039C33.9816 18.929 33.825 19.1078 33.7279 19.3189L28.2639 31.5961H19.9119C19.5937 31.5961 19.2884 31.7213 19.0634 31.9441C18.8383 32.1669 18.7119 32.4691 18.7119 32.7842C18.7119 33.0993 18.8383 33.4015 19.0634 33.6243C19.2884 33.8471 19.5937 33.9723 19.9119 33.9723Z" fill="#CA0000"/>
</svg>
