<svg width="80" height="80" viewBox="0 0 80 80" fill="none" xmlns="http://www.w3.org/2000/svg">
<g clip-path="url(#clip0)">
<path d="M78.75 77.5H1.25C0.918479 77.5 0.600537 77.6317 0.366117 77.8661C0.131696 78.1005 0 78.4185 0 78.75C0 79.0815 0.131696 79.3995 0.366117 79.6339C0.600537 79.8683 0.918479 80 1.25 80H78.75C79.0815 80 79.3995 79.8683 79.6339 79.6339C79.8683 79.3995 80 79.0815 80 78.75C80 78.4185 79.8683 78.1005 79.6339 77.8661C79.3995 77.6317 79.0815 77.5 78.75 77.5Z" fill="#CA0000"/>
<path d="M1.25 67.5H21.875C22.0622 67.4998 22.2471 67.4577 22.4158 67.3765C22.5846 67.2954 22.733 67.1774 22.85 67.0312L30.35 57.6562C30.5451 57.3965 30.6314 57.0712 30.5908 56.749C30.5501 56.4268 30.3857 56.133 30.1322 55.9299C29.8788 55.7269 29.5563 55.6304 29.2329 55.661C28.9096 55.6915 28.6109 55.8467 28.4 56.0937L26.8812 57.9687C26.9625 54.2187 30.1938 51.2312 34.1625 51.2312H41.2125C41.544 51.2312 41.862 51.0995 42.0964 50.8651C42.3308 50.6307 42.4625 50.3127 42.4625 49.9812C42.4625 49.6497 42.3308 49.3317 42.0964 49.0973C41.862 48.8629 41.544 48.7312 41.2125 48.7312H34.1625C32.6335 48.7236 31.1236 49.0701 29.7509 49.7434C28.3781 50.4168 27.1799 51.3988 26.25 52.6125C25.6909 50.9561 24.7534 49.4528 23.512 48.222C22.2706 46.9911 20.7594 46.0664 19.0983 45.5214C17.4373 44.9764 15.6721 44.826 13.9427 45.0821C12.2134 45.3382 10.5676 45.9938 9.13579 46.9969C7.70402 48 6.52573 49.323 5.6944 50.8609C4.86306 52.3988 4.40157 54.1092 4.34653 55.8565C4.2915 57.6039 4.64443 59.34 5.37734 60.9271C6.11024 62.5142 7.20295 63.9087 8.56875 65H1.25C0.918479 65 0.600537 65.1316 0.366117 65.3661C0.131696 65.6005 0 65.9184 0 66.25C0 66.5815 0.131696 66.8994 0.366117 67.1338C0.600537 67.3683 0.918479 67.5 1.25 67.5ZM6.875 56.25C6.875 54.5194 7.38818 52.8276 8.34964 51.3887C9.3111 49.9498 10.6777 48.8283 12.2765 48.166C13.8754 47.5037 15.6347 47.3305 17.332 47.6681C19.0294 48.0057 20.5885 48.8391 21.8122 50.0628C23.0359 51.2865 23.8693 52.8456 24.2069 54.5429C24.5445 56.2402 24.3712 57.9996 23.7089 59.5984C23.0467 61.1973 21.9252 62.5638 20.4862 63.5253C19.0473 64.4868 17.3556 65 15.625 65C13.3044 65 11.0788 64.0781 9.43782 62.4371C7.79687 60.7962 6.875 58.5706 6.875 56.25Z" fill="#CA0000"/>
<path d="M78.75 65H70.625V51.25H78.75C79.0815 51.25 79.3995 51.1183 79.6339 50.8839C79.8683 50.6495 80 50.3315 80 50C80 49.6685 79.8683 49.3505 79.6339 49.1161C79.3995 48.8817 79.0815 48.75 78.75 48.75H66.25C65.9185 48.75 65.6005 48.8817 65.3661 49.1161C65.1317 49.3505 65 49.6685 65 50C65 50.3315 65.1317 50.6495 65.3661 50.8839C65.6005 51.1183 65.9185 51.25 66.25 51.25H68.125V65H36.25L39.6937 60.7937C39.9043 60.5368 40.0041 60.2068 39.9713 59.8763C39.9385 59.5457 39.7757 59.2418 39.5187 59.0312C39.2618 58.8207 38.9318 58.7209 38.6013 58.7537C38.2707 58.7865 37.9668 58.9493 37.7562 59.2063L26.9062 72.5H1.25C0.918479 72.5 0.600537 72.6317 0.366117 72.8661C0.131696 73.1005 0 73.4185 0 73.75C0 74.0815 0.131696 74.3995 0.366117 74.6339C0.600537 74.8683 0.918479 75 1.25 75H27.5C27.6852 75.0005 27.8682 74.9598 28.0357 74.8809C28.2032 74.802 28.3512 74.6868 28.4688 74.5438L34.2313 67.5H78.75C79.0815 67.5 79.3995 67.3683 79.6339 67.1339C79.8683 66.8995 80 66.5815 80 66.25C80 65.9185 79.8683 65.6005 79.6339 65.3661C79.3995 65.1317 79.0815 65 78.75 65Z" fill="#CA0000"/>
<path d="M43.125 46.25C43.4565 46.25 43.7745 46.1183 44.0089 45.8839C44.2433 45.6495 44.375 45.3315 44.375 45C44.375 34.825 49.5125 28.75 58.125 28.75C67.125 28.75 72.5 34.825 72.5 45C72.5 45.3315 72.6317 45.6495 72.8661 45.8839C73.1005 46.1183 73.4185 46.25 73.75 46.25C74.0815 46.25 74.3995 46.1183 74.6339 45.8839C74.8683 45.6495 75 45.3315 75 45C75 39.4625 73.5125 34.9313 70.825 31.7062C71.7109 30.9123 72.3381 29.8707 72.6256 28.7164C72.9131 27.562 72.8476 26.348 72.4375 25.2312C71.7438 23.1562 69.45 19.475 68.75 18.3563V5.625C68.6787 4.15616 68.0632 2.76645 67.0234 1.72661C65.9835 0.686764 64.5938 0.0712573 63.125 0L53.75 0C52.2812 0.0712573 50.8915 0.686764 49.8516 1.72661C48.8118 2.76645 48.1963 4.15616 48.125 5.625V18.75C48.1584 20.4027 48.5942 22.0222 49.3947 23.4685C50.1951 24.9148 51.3361 26.1441 52.7187 27.05C45.9125 29.2188 41.875 35.6875 41.875 45C41.875 45.3315 42.0067 45.6495 42.2411 45.8839C42.4755 46.1183 42.7935 46.25 43.125 46.25ZM69.0625 29.9312C67.5394 28.6531 65.7785 27.6888 63.8812 27.0938C65.7867 25.9236 67.264 24.1702 68.0937 22.0938C68.8605 23.3393 69.5191 24.6483 70.0625 26.0063C70.3329 26.6821 70.3817 27.4263 70.202 28.1317C70.0223 28.837 69.6233 29.4672 69.0625 29.9312ZM66.25 17.2188C62.375 16.3312 61.1062 15.625 58.0562 13.125H66.25V17.2188ZM50.625 5.625C50.6942 4.81941 51.0457 4.06414 51.6174 3.4924C52.1891 2.92066 52.9444 2.5692 53.75 2.5H63.125C63.9306 2.5692 64.6859 2.92066 65.2576 3.4924C65.8293 4.06414 66.1808 4.81941 66.25 5.625V10.625H50.625V5.625ZM50.625 18.75V13.125H54.2125C58.6875 17.15 60.625 18.575 66.1562 19.7625C65.5875 23.3188 62.0812 26.25 58.125 26.25C54.5813 26.25 50.625 23.0438 50.625 18.75Z" fill="#CA0000"/>
<path d="M56.7501 45.9L61.7501 35.5438C61.8835 35.2469 61.8959 34.9097 61.7846 34.6038C61.6732 34.298 61.447 34.0476 61.1539 33.9059C60.8609 33.7643 60.5241 33.7425 60.2153 33.8453C59.9064 33.9481 59.6499 34.1673 59.5001 34.4563L54.6439 44.5125L44.2189 51.55C43.9959 51.6999 43.8271 51.9176 43.7375 52.1709C43.648 52.4242 43.6424 52.6996 43.7216 52.9563C43.8009 53.213 43.9608 53.4374 44.1775 53.5961C44.3943 53.7548 44.6564 53.8395 44.9251 53.8375C45.1744 53.8381 45.4182 53.7641 45.6251 53.625L56.3251 46.3938C56.5079 46.2697 56.6546 46.0993 56.7501 45.9Z" fill="#CA0000"/>
<path d="M50.55 58.7938C50.8126 58.7934 51.0685 58.7103 51.2812 58.5563L61.7312 51.0125C61.8674 50.9136 61.9822 50.7882 62.0687 50.6438L67.3187 41.8938C67.4469 41.6133 67.4668 41.2953 67.3748 41.001C67.2827 40.7067 67.085 40.4568 66.8198 40.2994C66.5546 40.142 66.2406 40.0881 65.9381 40.1482C65.6356 40.2084 65.3661 40.3782 65.1812 40.625L60.0625 49.1375L49.8187 56.5313C49.6049 56.6861 49.4455 56.9046 49.3636 57.1556C49.2816 57.4065 49.2811 57.677 49.3623 57.9282C49.4435 58.1794 49.6022 58.3985 49.8155 58.554C50.0289 58.7094 50.286 58.7934 50.55 58.7938Z" fill="#CA0000"/>
</g>
<defs>
<clipPath id="clip0">
<rect width="80" height="80" fill="white"/>
</clipPath>
</defs>
</svg>
