<svg width="80" height="80" viewBox="0 0 80 80" fill="none" xmlns="http://www.w3.org/2000/svg">
<path d="M14.3531 38.744C14.3531 37.5124 13.3541 36.5103 12.1267 36.5103C10.8947 36.5103 9.89258 37.5124 9.89258 38.744C9.89258 39.9714 10.8947 40.97 12.1267 40.97C13.3541 40.97 14.3531 39.9714 14.3531 38.744Z" fill="#CA0000"/>
<path d="M51.1823 63.6672C49.0571 63.6672 47.3281 65.3928 47.3281 67.5146C47.3281 69.6364 49.0571 71.362 51.1823 71.362C53.3041 71.362 55.0297 69.6364 55.0297 67.5146C55.0297 65.3928 53.3041 63.6672 51.1823 63.6672ZM51.1823 69.6228C50.0161 69.6228 49.0673 68.6774 49.0673 67.5146C49.0673 66.3518 50.0161 65.4064 51.1823 65.4064C52.3451 65.4064 53.2905 66.3518 53.2905 67.5146C53.2905 68.6774 52.3451 69.6228 51.1823 69.6228Z" fill="#CA0000"/>
<path d="M47.0248 9.39074H55.3333C55.8133 9.39074 56.2028 9.00125 56.2028 8.52118C56.2028 8.04111 55.8133 7.65161 55.3333 7.65161H47.0248C46.5448 7.65161 46.1553 8.04111 46.1553 8.52118C46.1553 9.00125 46.5448 9.39074 47.0248 9.39074Z" fill="#CA0000"/>
<path d="M18.4364 38.7443C18.4364 35.2604 15.6058 32.4263 12.1264 32.4263C8.64358 32.4263 5.80957 35.2604 5.80957 38.7443C5.80957 41.927 8.18325 44.5598 11.2534 44.9868V58.5846C11.2534 60.7495 13.0152 62.5113 15.1812 62.5113H29.0353V71.4492C29.0353 74.4055 31.4414 76.8115 34.3977 76.8115H67.9586C70.9149 76.8115 73.3209 74.4055 73.3209 71.4492V23.8869C73.801 23.8869 74.1905 23.4975 74.1905 23.0174V21.6791C74.1905 21.199 73.801 20.8095 73.3209 20.8095V18.4273C73.801 18.4273 74.1905 18.0378 74.1905 17.5577V16.2205C74.1905 15.7404 73.801 15.3509 73.3209 15.3509V8.55067C73.3209 5.59438 70.9149 3.18835 67.9586 3.18835H34.3977C31.4414 3.18835 29.0353 5.59438 29.0353 8.55067V13.0459C28.5558 13.0466 28.1669 13.4356 28.1669 13.9153V16.6745C28.1669 17.1542 28.5558 17.5432 29.0353 17.5439V60.7721H15.1812C13.9742 60.7721 12.9925 59.7905 12.9925 58.5846V44.9877C16.0625 44.5634 18.4364 41.9291 18.4364 38.7443ZM30.7745 8.55067C30.7745 6.55339 32.4004 4.92748 34.3977 4.92748H67.9586C69.9559 4.92748 71.5818 6.55339 71.5818 8.55067V71.4492C71.5818 73.4465 69.9559 75.0724 67.9586 75.0724H34.3977C32.4004 75.0724 30.7745 73.4465 30.7745 71.4492V62.5113H32.1852C34.3512 62.5113 36.113 60.7495 36.113 58.5846V50.437C36.113 49.23 37.0947 48.2484 38.3017 48.2484C39.5075 48.2484 40.4892 49.23 40.4892 50.437V58.5846C40.4892 60.7495 42.2509 62.5113 44.4169 62.5113H45.5786C47.7446 62.5113 49.5064 60.7495 49.5064 58.5846V47.1291C49.933 46.9911 50.3309 46.766 50.6511 46.4458C51.1798 45.9159 51.4833 45.1822 51.4833 44.4338V42.6547C55.197 41.7395 60.3014 38.0794 57.7154 35.0661C58.2785 33.7928 58.5904 32.4066 58.5904 31.0054V21.8229C58.5904 20.4608 57.483 19.3523 56.1209 19.3523H54.8863C54.5211 18.26 53.5021 17.466 52.2906 17.466C50.7722 17.466 49.5369 18.7013 49.5369 20.2207C49.5369 21.7391 50.7722 22.9744 52.2906 22.9744C53.501 22.9744 54.5194 22.1817 54.8855 21.0914H56.1209C56.524 21.0914 56.8512 21.4198 56.8512 21.8229V31.0054C56.8512 32.0858 56.6299 33.1563 56.2247 34.1499C55.0714 33.8662 54.0169 34.2764 53.3288 35.0826C53.2247 35.2038 53.1205 35.3249 53.0118 35.4347C51.7346 36.7108 49.9615 37.3584 48.1397 37.2486C46.5217 37.1376 45.0261 36.3643 43.9289 35.069C43.2541 34.2746 42.1827 33.8643 41.0328 34.152C40.5714 33.0647 40.3182 31.8982 40.3182 30.7269V21.8229C40.3182 21.4266 40.6579 21.0914 41.0598 21.0914H42.2579C42.626 22.2001 43.6608 23.0072 44.8913 23.0072C46.4244 23.0072 47.6721 21.7572 47.6721 20.2207C47.6721 18.6832 46.4244 17.4332 44.8913 17.4332C43.6597 17.4332 42.6243 18.2417 42.2571 19.3523H41.0598C39.6921 19.3523 38.5791 20.4608 38.5791 21.8229V30.7269C38.5791 32.2203 38.924 33.7052 39.5466 35.0744C38.6515 36.1287 38.6153 37.7055 39.5381 38.7952C41.2073 40.7625 43.3827 42.0933 45.7903 42.6772V44.4338C45.7903 45.698 46.6246 46.7599 47.7672 47.13V58.5847C47.7672 59.7905 46.7856 60.7722 45.5786 60.7722H44.4169C43.2099 60.7722 42.2283 59.7905 42.2283 58.5847V50.437C42.2283 48.271 40.4665 46.5092 38.3016 46.5092C36.1357 46.5092 34.3739 48.271 34.3739 50.437V58.5847C34.3739 59.7905 33.3922 60.7722 32.1852 60.7722H30.7745V8.55067H30.7745ZM40.9964 36.0631C41.4851 35.6514 42.2022 35.7208 42.6019 36.1945C45.7523 39.9088 51.0985 39.8073 54.2437 36.6621C54.4261 36.4797 55.2968 35.235 56.2738 36.0642C58.751 38.1893 47.6281 45.642 40.8651 37.6698C40.4586 37.1908 40.5174 36.4696 40.9964 36.0631ZM47.5294 42.9656C47.6021 42.9719 47.6728 42.9864 47.7457 42.9913C48.0231 43.0106 48.2994 43.0196 48.5756 43.0196C48.9685 43.0196 49.3582 42.9997 49.7441 42.9629V44.4338C49.7441 44.7248 49.6252 45.0113 49.4203 45.2173C49.2142 45.4234 48.9289 45.5412 48.6368 45.5412C48.0265 45.5412 47.5294 45.0441 47.5294 44.4338V42.9656H47.5294ZM53.3005 20.2207C53.3005 20.7801 52.8476 21.2352 52.2905 21.2352C51.7312 21.2352 51.2761 20.7801 51.2761 20.2207C51.2761 19.6603 51.7312 19.2051 52.2905 19.2051C52.8476 19.2051 53.3005 19.6603 53.3005 20.2207ZM43.844 20.2207C43.844 19.6422 44.3139 19.1723 44.8913 19.1723C45.4654 19.1723 45.933 19.6422 45.933 20.2207C45.933 20.7982 45.4654 21.2681 44.8913 21.2681C44.3139 21.2681 43.844 20.7982 43.844 20.2207ZM7.54869 38.7443C7.54869 36.2194 9.60258 34.1655 12.1264 34.1655C14.6467 34.1655 16.6972 36.2194 16.6972 38.7443C16.6972 41.2647 14.6467 43.3152 12.1264 43.3152C9.60259 43.3152 7.54869 41.2647 7.54869 38.7443Z" fill="#CA0000"/>
</svg>
