<svg width="80" height="80" viewBox="0 0 80 80" fill="none" xmlns="http://www.w3.org/2000/svg">
<path d="M25.0321 73.176H19.7441V67.304H23.5041C24.1045 67.304 24.6804 67.0655 25.105 66.6409C25.5295 66.2163 25.7681 65.6405 25.7681 65.04V33.088C25.7681 32.4876 25.5295 31.9117 25.105 31.4871C24.6804 31.0625 24.1045 30.824 23.5041 30.824H21.2081V26.128H18.0481V5.60002C18.0481 5.26797 17.9162 4.94952 17.6814 4.71472C17.4466 4.47993 17.1281 4.34802 16.7961 4.34802C16.464 4.34802 16.1456 4.47993 15.9108 4.71472C15.676 4.94952 15.5441 5.26797 15.5441 5.60002V26.16H12.3921V30.864H10.0961C9.50387 30.866 8.93603 31.1 8.5143 31.5157C8.09257 31.9315 7.85053 32.4959 7.84007 33.088V65.04C7.84007 65.6405 8.0786 66.2163 8.50318 66.6409C8.92776 67.0655 9.50362 67.304 10.1041 67.304H13.8641V73.176H8.62407C8.29202 73.176 7.97357 73.3079 7.73877 73.5427C7.50398 73.7775 7.37207 74.096 7.37207 74.428C7.37207 74.7601 7.50398 75.0785 7.73877 75.3133C7.97357 75.5481 8.29202 75.68 8.62407 75.68H25.0321C25.3641 75.68 25.6826 75.5481 25.9174 75.3133C26.1522 75.0785 26.2841 74.7601 26.2841 74.428C26.2841 74.096 26.1522 73.7775 25.9174 73.5427C25.6826 73.3079 25.3641 73.176 25.0321 73.176ZM14.8961 28.632H18.7121V30.824H14.8961V28.632ZM10.3441 64.8V54.4H14.2561C14.5881 54.4 14.9066 54.2681 15.1414 54.0333C15.3762 53.7985 15.5081 53.4801 15.5081 53.148C15.5081 52.816 15.3762 52.4975 15.1414 52.2627C14.9066 52.0279 14.5881 51.896 14.2561 51.896H10.3441V47.128H14.2561C14.5881 47.128 14.9066 46.9961 15.1414 46.7613C15.3762 46.5265 15.5081 46.2081 15.5081 45.876C15.5081 45.544 15.3762 45.2255 15.1414 44.9907C14.9066 44.7559 14.5881 44.624 14.2561 44.624H10.3441V39.88H14.2561C14.5881 39.88 14.9066 39.7481 15.1414 39.5133C15.3762 39.2785 15.5081 38.9601 15.5081 38.628C15.5081 38.296 15.3762 37.9775 15.1414 37.7427C14.9066 37.5079 14.5881 37.376 14.2561 37.376H10.3441V33.312H23.2641V64.8H10.3441ZM17.2401 67.288V73.16H16.3601V67.304H17.2321L17.2401 67.288Z" fill="#CA0000"/>
<path d="M35.3759 17.344C35.0449 17.344 34.7275 17.4755 34.4935 17.7096C34.2594 17.9436 34.1279 18.261 34.1279 18.592V21.792C34.1279 22.1241 34.2598 22.4425 34.4946 22.6773C34.7294 22.9121 35.0479 23.044 35.3799 23.044C35.712 23.044 36.0304 22.9121 36.2652 22.6773C36.5 22.4425 36.6319 22.1241 36.6319 21.792V18.592C36.6319 18.4275 36.5994 18.2645 36.5362 18.1126C36.473 17.9606 36.3803 17.8227 36.2636 17.7067C36.1468 17.5907 36.0083 17.499 35.856 17.4367C35.7036 17.3745 35.5405 17.343 35.3759 17.344Z" fill="#CA0000"/>
<path d="M39.4003 17.344C39.0694 17.344 38.7519 17.4755 38.5179 17.7096C38.2838 17.9436 38.1523 18.261 38.1523 18.592V21.792C38.1523 22.1241 38.2843 22.4425 38.519 22.6773C38.7538 22.9121 39.0723 23.044 39.4043 23.044C39.7364 23.044 40.0548 22.9121 40.2896 22.6773C40.5244 22.4425 40.6563 22.1241 40.6563 21.792V18.592C40.6563 18.4275 40.6238 18.2645 40.5606 18.1126C40.4974 17.9606 40.4047 17.8227 40.288 17.7067C40.1713 17.5907 40.0327 17.499 39.8804 17.4367C39.728 17.3745 39.5649 17.343 39.4003 17.344Z" fill="#CA0000"/>
<path d="M43.4238 17.344C43.0928 17.344 42.7754 17.4755 42.5413 17.7096C42.3073 17.9436 42.1758 18.261 42.1758 18.592V21.792C42.1758 22.1241 42.3077 22.4425 42.5425 22.6773C42.7773 22.9121 43.0957 23.044 43.4278 23.044C43.7598 23.044 44.0783 22.9121 44.3131 22.6773C44.5479 22.4425 44.6798 22.1241 44.6798 21.792V18.592C44.6798 18.4275 44.6472 18.2645 44.584 18.1126C44.5208 17.9606 44.4282 17.8227 44.3114 17.7067C44.1947 17.5907 44.0562 17.499 43.9038 17.4367C43.7515 17.3745 43.5883 17.343 43.4238 17.344Z" fill="#CA0000"/>
<path d="M46.8801 13.928H31.9201C31.222 13.928 30.5526 14.2053 30.059 14.6989C29.5654 15.1925 29.2881 15.8619 29.2881 16.56V24C29.2888 24.5512 29.463 25.0882 29.7861 25.5348C30.1092 25.9814 30.5648 26.3149 31.0881 26.488V67.376C31.0881 69.5773 31.9625 71.6884 33.5191 73.245C35.0756 74.8015 37.1868 75.676 39.3881 75.676C41.5894 75.676 43.7005 74.8015 45.2571 73.245C46.8136 71.6884 47.6881 69.5773 47.6881 67.376V26.456C48.2108 26.2887 48.6678 25.9619 48.995 25.5213C49.3222 25.0807 49.5031 24.5487 49.5121 24V16.56C49.5121 15.8619 49.2348 15.1925 48.7412 14.6989C48.2476 14.2053 47.5781 13.928 46.8801 13.928ZM45.2161 67.072C45.2161 68.6166 44.6025 70.098 43.5103 71.1902C42.4181 72.2824 40.9367 72.896 39.3921 72.896C37.853 72.8875 36.3799 72.2702 35.2946 71.1789C34.2093 70.0876 33.6001 68.6111 33.6001 67.072V53.312H45.2161V67.072ZM45.2161 50.808H33.6001V39.408H45.2161V50.808ZM45.2161 36.904H33.6001V26.6H45.2161V36.904ZM47.0321 23.776C47.0321 23.863 46.9975 23.9464 46.936 24.0079C46.8745 24.0694 46.7911 24.104 46.7041 24.104H32.0961C32.0091 24.104 31.9257 24.0694 31.8642 24.0079C31.8026 23.9464 31.7681 23.863 31.7681 23.776V16.744C31.7681 16.657 31.8026 16.5736 31.8642 16.512C31.9257 16.4505 32.0091 16.416 32.0961 16.416H46.7041C46.7911 16.416 46.8745 16.4505 46.936 16.512C46.9975 16.5736 47.0321 16.657 47.0321 16.744V23.776Z" fill="#CA0000"/>
<path d="M58.4882 17.344C58.1572 17.344 57.8398 17.4755 57.6058 17.7096C57.3717 17.9436 57.2402 18.261 57.2402 18.592V21.792C57.2402 22.1241 57.3721 22.4425 57.6069 22.6773C57.8417 22.9121 58.1602 23.044 58.4922 23.044C58.8243 23.044 59.1427 22.9121 59.3775 22.6773C59.6123 22.4425 59.7442 22.1241 59.7442 21.792V18.592C59.7442 18.4275 59.7117 18.2645 59.6485 18.1126C59.5853 17.9606 59.4926 17.8227 59.3759 17.7067C59.2591 17.5907 59.1206 17.499 58.9683 17.4367C58.8159 17.3745 58.6528 17.343 58.4882 17.344Z" fill="#CA0000"/>
<path d="M62.5117 17.344C62.1807 17.344 61.8632 17.4755 61.6292 17.7096C61.3952 17.9436 61.2637 18.261 61.2637 18.592V21.792C61.2637 22.1241 61.3956 22.4425 61.6304 22.6773C61.8652 22.9121 62.1836 23.044 62.5157 23.044C62.8477 23.044 63.1662 22.9121 63.401 22.6773C63.6358 22.4425 63.7677 22.1241 63.7677 21.792V18.592C63.7677 18.4275 63.7351 18.2645 63.6719 18.1126C63.6087 17.9606 63.5161 17.8227 63.3993 17.7067C63.2826 17.5907 63.1441 17.499 62.9917 17.4367C62.8394 17.3745 62.6762 17.343 62.5117 17.344Z" fill="#CA0000"/>
<path d="M66.5439 17.344C66.2129 17.344 65.8955 17.4755 65.6614 17.7096C65.4274 17.9436 65.2959 18.261 65.2959 18.592V21.792C65.2959 22.1241 65.4278 22.4425 65.6626 22.6773C65.8974 22.9121 66.2158 23.044 66.5479 23.044C66.88 23.044 67.1984 22.9121 67.4332 22.6773C67.668 22.4425 67.7999 22.1241 67.7999 21.792V18.592C67.7999 18.4275 67.7674 18.2645 67.7041 18.1126C67.6409 17.9606 67.5483 17.8227 67.4315 17.7067C67.3148 17.5907 67.1763 17.499 67.0239 17.4367C66.8716 17.3745 66.7085 17.343 66.5439 17.344Z" fill="#CA0000"/>
<path d="M70.0004 13.928H55.0324C54.3343 13.928 53.6649 14.2053 53.1713 14.6989C52.6777 15.1925 52.4004 15.8619 52.4004 16.56V24C52.4011 24.5512 52.5753 25.0882 52.8984 25.5348C53.2215 25.9814 53.6771 26.3149 54.2004 26.488V67.376C54.2004 69.5773 55.0749 71.6884 56.6314 73.245C58.188 74.8015 60.2991 75.676 62.5004 75.676C64.7017 75.676 66.8128 74.8015 68.3694 73.245C69.9259 71.6884 70.8004 69.5773 70.8004 67.376V26.456C71.3246 26.2901 71.7834 25.9638 72.1121 25.5231C72.4408 25.0825 72.6228 24.5497 72.6324 24V16.56C72.6324 15.8619 72.3551 15.1925 71.8615 14.6989C71.3679 14.2053 70.6984 13.928 70.0004 13.928ZM68.3364 67.072C68.3364 68.6166 67.7228 70.098 66.6306 71.1902C65.5384 72.2824 64.057 72.896 62.5124 72.896C60.9678 72.896 59.4864 72.2824 58.3942 71.1902C57.302 70.098 56.6884 68.6166 56.6884 67.072V53.312H68.3364V67.072ZM68.3364 50.808H56.6804V39.408H68.3364V50.808ZM68.3364 36.904H56.6804V26.6H68.3364V36.904ZM70.1524 23.776C70.1524 23.863 70.1178 23.9464 70.0563 24.0079C69.9948 24.0694 69.9114 24.104 69.8244 24.104H55.2004C55.1134 24.104 55.03 24.0694 54.9685 24.0079C54.9069 23.9464 54.8724 23.863 54.8724 23.776V16.744C54.8724 16.657 54.9069 16.5736 54.9685 16.512C55.03 16.4505 55.1134 16.416 55.2004 16.416H69.8244C69.9114 16.416 69.9948 16.4505 70.0563 16.512C70.1178 16.5736 70.1524 16.657 70.1524 16.744V23.776Z" fill="#CA0000"/>
</svg>
