<svg width="76" height="76" viewBox="0 0 76 76" fill="none" xmlns="http://www.w3.org/2000/svg">
<g clip-path="url(#clip0)">
<path d="M63.2314 61.1165C62.6165 61.1165 62.1182 61.6148 62.1182 62.2297V74.8867C62.1182 75.5017 62.6165 76 63.2314 76C63.8464 76 64.3447 75.5017 64.3447 74.8867V62.2297C64.3447 61.6149 63.8464 61.1165 63.2314 61.1165Z" fill="#FA7212"/>
<path d="M36.7822 61.1165C36.1672 61.1165 35.6689 61.6148 35.6689 62.2297V74.8867C35.6689 75.5017 36.1672 76 36.7822 76C37.3972 76 37.8955 75.5017 37.8955 74.8867V62.2297C37.8955 61.6149 37.3972 61.1165 36.7822 61.1165Z" fill="#FA7212"/>
<path d="M55.0695 44.5644V43.1791C59.5174 41.4435 62.8955 37.4946 63.8727 32.6864C64.0237 32.6986 64.1751 32.7067 64.3269 32.7067C67.4349 32.7067 69.9632 30.1784 69.9632 27.0705C69.9632 25.2605 69.1047 23.6482 67.7744 22.6162V16.3805C67.7898 16.3442 67.8063 16.3085 67.8213 16.2719C68.3723 14.9282 68.5804 13.4532 68.4235 12.0061C68.3739 11.5475 68.3083 11.0866 68.2286 10.6358C67.1404 4.47302 61.7701 0 55.459 0H55.2356C54.6206 0 54.1223 0.498305 54.1223 1.11328C54.1223 1.72826 54.6206 2.22656 55.2356 2.22656H55.459C60.6878 2.22656 65.1359 5.92592 66.0359 11.023C66.107 11.4252 66.1655 11.8366 66.2099 12.2459C66.327 13.3255 66.1717 14.4257 65.7611 15.4271C64.7556 17.879 62.3932 19.4633 59.7429 19.4633H40.2728C37.6258 19.4633 35.2646 17.8817 34.2575 15.4339C34.2565 15.4313 34.255 15.4279 34.2536 15.4244C33.8423 14.4222 33.6869 13.3218 33.8042 12.2421C33.8485 11.8342 33.9069 11.424 33.9777 11.0228C34.8774 5.92592 39.3256 2.22656 44.5545 2.22656H50.2148C50.8298 2.22656 51.3281 1.72826 51.3281 1.11328C51.3281 0.498305 50.8298 0 50.2148 0H44.5545C38.2433 0 32.8729 4.47302 31.7848 10.6357C31.7056 11.0852 31.6399 11.5447 31.5904 12.0013C31.4326 13.4519 31.6425 14.9304 32.1966 16.2772C32.1976 16.2799 32.1993 16.2834 32.2006 16.287C32.2129 16.317 32.2266 16.3462 32.2393 16.3761V22.6158C30.9084 23.6477 30.0494 25.2602 30.0494 27.0704C30.0494 30.1782 32.5785 32.7066 35.6871 32.7066C35.8283 32.7066 35.9694 32.6994 36.1104 32.6889C36.6436 35.4528 37.9904 37.992 40.0332 40.0202C41.4564 41.4334 43.1253 42.507 44.9431 43.2021V44.5645C40.6881 44.9889 36.8424 46.7666 33.8272 49.4509L24.991 40.6146C24.7821 40.4059 24.4991 40.2886 24.2037 40.2886H4.29004C3.67506 40.2886 3.17676 40.7869 3.17676 41.4019C3.17676 42.0169 3.67506 42.5152 4.29004 42.5152H23.7429L32.25 51.0224C29.1011 54.53 27.1907 59.1602 27.1907 64.1967V66.7549C27.1907 67.3698 27.689 67.8681 28.304 67.8681C28.9189 67.8681 29.4172 67.3698 29.4172 66.7549V64.1967C29.4172 59.771 31.08 55.6992 33.826 52.5984L34.2593 53.0317C34.4767 53.249 34.7616 53.3576 35.0466 53.3576C35.3314 53.3576 35.6164 53.249 35.8339 53.0317C36.2687 52.5967 36.2687 51.892 35.8339 51.4572L35.4045 51.0278C38.0113 48.7417 41.3034 47.2123 44.9435 46.8025V48.1493C44.9435 50.9406 47.2152 53.2116 50.0073 53.2116C52.7987 53.2116 55.0696 50.9406 55.0696 48.1493V46.8022C63.8432 47.7893 70.5968 55.2704 70.5968 64.1967V74.8867C70.5968 75.5017 71.0951 76 71.7101 76C72.325 76 72.8233 75.5017 72.8233 74.8867V64.1965C72.823 54.0507 65.081 45.5623 55.0695 44.5644ZM64.3268 30.4802C64.2661 30.4802 64.2054 30.4785 64.1449 30.4753C64.1549 30.2559 64.1607 30.0354 64.1607 29.8137V23.6688C64.216 23.6661 64.2711 23.6611 64.3268 23.6611C66.2069 23.6611 67.7365 25.1906 67.7365 27.0707C67.7365 28.9508 66.2069 30.4802 64.3268 30.4802ZM65.5475 19.487V21.5692C65.1542 21.4819 64.746 21.4345 64.3266 21.4345C64.2711 21.4345 64.2159 21.4368 64.1605 21.4384V21.1243C64.1605 20.9177 64.1544 20.7106 64.1454 20.5043C64.6452 20.213 65.1148 19.8724 65.5475 19.487ZM34.466 19.4849C34.8984 19.8703 35.368 20.2108 35.8673 20.5022C35.8582 20.7093 35.8522 20.9169 35.8522 21.1241V21.4382C35.7972 21.4366 35.7423 21.4344 35.6874 21.4344C35.2679 21.4344 34.8597 21.4819 34.466 21.5692V19.4849ZM35.6872 30.4802C33.8062 30.4802 32.2761 28.9507 32.2761 27.0705C32.2761 25.1904 33.8064 23.6609 35.6872 23.6609C35.7423 23.6609 35.7971 23.6658 35.852 23.6687V29.977C35.852 30.1438 35.8559 30.3099 35.8617 30.4757C35.8036 30.4787 35.7454 30.4802 35.6872 30.4802ZM38.0787 29.977V21.4118C38.7838 21.5935 39.5196 21.6898 40.2728 21.6898H59.7427C60.4952 21.6898 61.2298 21.5936 61.9341 21.4126V29.8137C61.9341 36.4318 56.6239 41.8554 50.0971 41.9039C50.0676 41.9042 50.0383 41.9042 50.0088 41.9042C46.8367 41.9042 43.8541 40.6762 41.6022 38.4403C39.3299 36.1845 38.0787 33.1787 38.0787 29.977ZM50.0072 50.9849C48.4426 50.9849 47.1699 49.7129 47.1699 48.1491V43.8474C48.0942 44.0344 49.0438 44.1308 50.0085 44.1306C50.0432 44.1306 50.0786 44.1306 50.1133 44.1303C51.0471 44.1233 51.9596 44.023 52.8429 43.8397V48.149C52.8429 49.7128 51.5708 50.9849 50.0072 50.9849Z" fill="#FA7212"/>
<path d="M28.3037 70.6624C27.6887 70.6624 27.1904 71.1607 27.1904 71.7756V74.8868C27.1904 75.5017 27.6887 76 28.3037 76C28.9187 76 29.417 75.5017 29.417 74.8868V71.7756C29.417 71.1607 28.9187 70.6624 28.3037 70.6624Z" fill="#FA7212"/>
<path d="M56.1273 27.8369C56.1316 27.8371 56.1361 27.8371 56.1404 27.8371C56.7493 27.8371 57.2462 27.3469 57.2532 26.7365C57.2603 26.1217 56.7677 25.6176 56.1529 25.6106L56.1402 25.6105C56.1359 25.6104 56.1315 25.6104 56.1272 25.6104C55.5184 25.6104 55.0276 26.1005 55.0206 26.7109C55.0135 27.3257 55.5124 27.8299 56.1273 27.8369Z" fill="#FA7212"/>
<path d="M43.8861 25.6106H43.8738C43.2588 25.6106 42.7666 26.1089 42.7666 26.7239C42.7666 27.3389 43.2711 27.8372 43.8861 27.8372C44.5011 27.8372 44.9994 27.3389 44.9994 26.7239C44.9994 26.1089 44.5009 25.6106 43.8861 25.6106Z" fill="#FA7212"/>
<path d="M21.2624 45.7097H7.18164C6.56666 45.7097 6.06836 46.208 6.06836 46.823C6.06836 47.438 6.56666 47.9363 7.18164 47.9363H21.2623C21.8772 47.9363 22.3756 47.438 22.3756 46.823C22.3756 46.208 21.8772 45.7097 21.2624 45.7097Z" fill="#FA7212"/>
<path d="M21.2628 49.6187H13.2412C12.6262 49.6187 12.1279 50.117 12.1279 50.7319C12.1279 51.3469 12.6262 51.8452 13.2412 51.8452H21.2628C21.8777 51.8452 22.376 51.3469 22.376 50.7319C22.376 50.117 21.8776 49.6187 21.2628 49.6187Z" fill="#FA7212"/>
<path d="M21.2628 53.5276H13.2412C12.6262 53.5276 12.1279 54.0259 12.1279 54.6409C12.1279 55.2558 12.6262 55.7542 13.2412 55.7542H21.2628C21.8777 55.7542 22.376 55.2558 22.376 54.6409C22.376 54.0259 21.8776 53.5276 21.2628 53.5276Z" fill="#FA7212"/>
<path d="M19.7313 59.1938H16.1729C14.7406 59.1938 13.5752 60.3592 13.5752 61.7915V65.3501C13.5752 66.7824 14.7406 67.9478 16.1729 67.9478H19.7313C21.1636 67.9478 22.329 66.7824 22.329 65.3501V61.7915C22.329 60.3592 21.1638 59.1938 19.7313 59.1938ZM20.1024 65.3501C20.1024 65.5548 19.936 65.7212 19.7313 65.7212H16.1729C15.9682 65.7212 15.8018 65.5548 15.8018 65.3501V61.7915C15.8018 61.5868 15.9682 61.4204 16.1729 61.4204H19.7313C19.936 61.4204 20.1024 61.5868 20.1024 61.7915V65.3501Z" fill="#FA7212"/>
<path d="M6.88627 31.5077C8.71398 34.0351 11.344 35.8584 14.704 36.9267C14.8741 36.9807 15.049 37.0079 15.224 37.0079C15.399 37.0079 15.5739 36.9807 15.7441 36.9267C19.104 35.8584 21.7342 34.0351 23.5616 31.5077C24.4549 30.2727 24.9591 29.1217 25.2247 28.374C25.3886 27.9131 25.4718 27.4289 25.4718 26.9351V24.3637C25.4718 23.7487 24.9735 23.2504 24.3586 23.2504C23.7436 23.2504 23.2453 23.7487 23.2453 24.3637V26.9351C23.2453 27.1739 23.2053 27.4071 23.1267 27.6283C22.9097 28.2392 22.496 29.1818 21.7573 30.2032C20.2427 32.2978 18.0452 33.8288 15.2239 34.755C12.4027 33.8286 10.2049 32.2977 8.69038 30.2034C8.42453 29.8355 8.18005 29.4485 7.96393 29.0534C7.46577 28.142 7.2023 27.0991 7.2023 26.0375V17.1858L15.2237 15.2324L23.245 17.1858V19.3429C23.245 19.9579 23.7433 20.4562 24.3583 20.4562C24.9732 20.4562 25.4715 19.9579 25.4715 19.3429V16.7883C25.4715 15.9921 24.9312 15.3045 24.1579 15.1163L15.6297 13.0394C15.3644 12.9751 15.0834 12.9751 14.8164 13.0397L6.28941 15.1163C5.5159 15.3045 4.97559 15.9919 4.97559 16.7883V26.0373C4.97559 27.4711 5.33332 28.8833 6.0102 30.1216C6.27145 30.5982 6.56595 31.0644 6.88627 31.5077Z" fill="#FA7212"/>
<path d="M15.2244 28.1837C15.8394 28.1837 16.3377 27.6854 16.3377 27.0704V25.5013H17.9068C18.5218 25.5013 19.0201 25.003 19.0201 24.388C19.0201 23.773 18.5218 23.2747 17.9068 23.2747H16.3377V21.7056C16.3377 21.0906 15.8394 20.5923 15.2244 20.5923C14.6094 20.5923 14.1111 21.0906 14.1111 21.7056V23.2747H12.542C11.927 23.2747 11.4287 23.773 11.4287 24.388C11.4287 25.003 11.927 25.5013 12.542 25.5013H14.1111V27.0704C14.1111 27.6854 14.6094 28.1837 15.2244 28.1837Z" fill="#FA7212"/>
<path d="M54.9211 33.1428C54.9432 32.5283 54.4632 32.0123 53.8486 31.99C53.2325 31.9695 52.7181 32.448 52.6959 33.0625C52.6433 34.5166 51.4619 35.6557 50.0063 35.6557C48.5504 35.6557 47.369 34.5167 47.3168 33.0626C47.2948 32.4481 46.7783 31.9673 46.1642 31.99C45.5496 32.0121 45.0694 32.5283 45.0916 33.1426C45.1873 35.8003 47.346 37.8823 50.0062 37.8823C52.6663 37.8823 54.8252 35.8006 54.9211 33.1428Z" fill="#FA7212"/>
</g>
<defs>
<clipPath id="clip0">
<rect width="76" height="76" fill="white"/>
</clipPath>
</defs>
</svg>
