<svg width="76" height="76" viewBox="0 0 76 76" fill="none" xmlns="http://www.w3.org/2000/svg">
<path d="M30.8603 23.7976C30.2455 23.7976 29.7471 24.2959 29.7471 24.9109V26.1009C29.7471 26.7159 30.2455 27.2142 30.8603 27.2142C31.4752 27.2142 31.9736 26.7159 31.9736 26.1009V24.9109C31.9736 24.2961 31.475 23.7976 30.8603 23.7976Z" fill="#FA7212"/>
<path d="M45.1387 23.7976C44.5237 23.7976 44.0254 24.2959 44.0254 24.9109V26.1009C44.0254 26.7159 44.5237 27.2142 45.1387 27.2142C45.7536 27.2142 46.2519 26.7159 46.2519 26.1009V24.9109C46.2519 24.2961 45.7535 23.7976 45.1387 23.7976Z" fill="#FA7212"/>
<path d="M42.3624 32.4586C41.9307 32.0206 41.2258 32.0161 40.7882 32.4479C40.3818 32.8487 39.4078 33.3168 38.0003 33.3168C36.5928 33.3168 35.6189 32.8487 35.2125 32.4479C34.7746 32.0158 34.0697 32.0207 33.6382 32.4584C33.2064 32.8962 33.2111 33.601 33.6487 34.0328C34.6075 34.9786 36.2342 35.5434 38.0003 35.5434C39.7662 35.5434 41.3929 34.9786 42.3517 34.0328C42.7894 33.6011 42.7942 32.8962 42.3624 32.4586Z" fill="#FA7212"/>
<path d="M32.0505 20.228H29.6709C29.0561 20.228 28.5576 20.7263 28.5576 21.3413C28.5576 21.9563 29.0561 22.4546 29.6709 22.4546H32.0506C32.6655 22.4546 33.1639 21.9563 33.1639 21.3413C33.1639 20.7263 32.6653 20.228 32.0505 20.228Z" fill="#FA7212"/>
<path d="M46.3289 20.228H43.9492C43.3342 20.228 42.8359 20.7263 42.8359 21.3413C42.8359 21.9563 43.3344 22.4546 43.9492 22.4546H46.3289C46.9439 22.4546 47.4422 21.9563 47.4422 21.3413C47.4422 20.7263 46.9439 20.228 46.3289 20.228Z" fill="#FA7212"/>
<path d="M61.8429 53.0274L53.8186 50.5603C53.8316 50.3179 53.8138 50.0727 53.7566 49.8305C53.5809 49.0867 53.0882 48.464 52.4047 48.1221L47.4422 45.641V42.1026C51.155 39.5204 53.7681 35.4614 54.4215 30.7838H55.0832C57.2529 30.7838 59.114 29.1717 59.3201 27.1133C59.4355 25.9598 59.0582 24.8082 58.2849 23.9537C57.9107 23.54 57.4584 23.2127 56.9613 22.9839V10.6324C56.9613 6.08189 53.2592 2.37974 48.7086 2.37974C48.7028 2.37974 48.6253 2.37974 48.5204 2.37988C46.5161 0.901456 43.5715 0 40.3052 0C33.3511 0 30.1563 1.44874 26.4572 3.12622C24.4811 4.02234 22.4379 4.94888 19.5416 5.79586C19.2376 5.88477 18.9857 6.09896 18.8493 6.385C18.7128 6.67089 18.7047 7.00146 18.8268 7.29373C18.8607 7.37478 19.3581 8.52947 20.6413 9.93219C20.0872 10.6143 19.0384 12.3585 19.0384 15.7885V23.0335C17.7574 23.6443 16.8224 24.8542 16.6797 26.2779C16.5641 27.4314 16.9412 28.5831 17.7146 29.438C18.4884 30.2932 19.5935 30.7837 20.7466 30.7837H21.5775C22.2303 35.4627 24.8436 39.5221 28.5573 42.104V45.6409L23.5946 48.122C22.9111 48.464 22.4183 49.0867 22.2427 49.8305C22.1855 50.0726 22.1679 50.3178 22.1808 50.5602L14.1564 53.0272C10.671 54.0989 8.3291 57.2688 8.3291 60.9154V74.8863C8.3291 75.5013 8.82755 75.9996 9.44238 75.9996C10.0572 75.9996 10.5557 75.5013 10.5557 74.8863V60.9156C10.5557 58.2529 12.2656 55.9382 14.8109 55.1556L23.1576 52.5895L24.6309 54.5539L22.9571 56.2278C21.8922 57.2925 21.6292 58.9129 22.3026 60.2599L25.4896 66.6337H22.4548V65.3672C22.4548 64.7522 21.9563 64.2539 21.3415 64.2539C20.7267 64.2539 20.2282 64.7522 20.2282 65.3672V66.6337H15.392C14.7772 66.6337 14.2787 67.132 14.2787 67.7469V74.8863C14.2787 75.5013 14.7772 75.9996 15.392 75.9996H27.291C27.9058 75.9996 28.4043 75.5013 28.4043 74.8863V72.4629L29.8649 75.3843C30.0599 75.7744 30.453 75.9999 30.8615 75.9999C31.0288 75.9999 31.1986 75.9619 31.3585 75.882C31.9084 75.6069 32.1314 74.9384 31.8563 74.3883L24.2942 59.2639C24.05 58.7756 24.1455 58.1882 24.5316 57.802L26.8883 55.4451C27.28 55.0534 27.3241 54.4332 26.9917 53.99L24.4695 50.6271C24.3856 50.5152 24.3962 50.4005 24.41 50.342C24.4238 50.2834 24.4657 50.176 24.5908 50.1134L28.9756 47.921L32.0711 58.5341C32.2433 59.1245 32.8611 59.463 33.4516 59.2912C34.0419 59.119 34.3808 58.5011 34.2086 57.9108L33.7207 56.2379C35.0896 56.7136 36.537 56.9612 38.0001 56.9612C39.4638 56.9612 40.9106 56.7144 42.2792 56.2386L38 70.9101L35.5974 62.6728C35.4252 62.0823 34.8072 61.7434 34.2169 61.9156C33.6266 62.0878 33.2877 62.7059 33.4599 63.2961L36.9312 75.1977C37.0699 75.6727 37.5052 75.9993 38 75.9993C38.4947 75.9993 38.9302 75.6727 39.0687 75.1977L47.0245 47.921L51.4091 50.1134C51.5344 50.176 51.5761 50.2835 51.5901 50.3418C51.6039 50.4005 51.6144 50.5152 51.5306 50.6271L49.0083 53.99C48.676 54.433 48.7201 55.0534 49.1116 55.4452L51.4685 57.8021C51.8547 58.1882 51.9499 58.7757 51.7059 59.2639L44.1433 74.3884C43.8683 74.9384 44.0912 75.6071 44.6412 75.8821C44.801 75.9622 44.971 76 45.1383 76C45.5466 76 45.9398 75.7744 46.1349 75.3844L53.697 60.2601C54.3704 58.9132 54.1076 57.2928 53.0428 56.2279L51.3688 54.5539L52.8418 52.5896L61.1887 55.1559C63.7338 55.9383 65.4438 58.2531 65.4438 60.9159V74.8863C65.4438 75.5013 65.9421 75.9996 66.5571 75.9996C67.1721 75.9996 67.6704 75.5013 67.6704 74.8863V60.9156C67.6702 57.2689 65.3285 54.0989 61.8429 53.0274ZM26.1774 73.773H16.505V68.8602H20.2279V68.9368C20.2279 69.5518 20.7264 70.0501 21.3412 70.0501C21.956 70.0501 22.4545 69.5518 22.4545 68.9368V68.8602H26.1774V73.773ZM27.3766 5.15402C30.9835 3.51839 33.8323 2.22655 40.3052 2.22655C44.4124 2.22655 48.0827 3.94545 48.8425 6.22499C49.0371 6.80834 49.6671 7.12318 50.2507 6.92902C50.8339 6.73457 51.1492 6.10401 50.9548 5.5208C50.8908 5.32873 50.8143 5.14036 50.7278 4.95541C53.0603 5.78754 54.7349 8.01766 54.7349 10.6324V22.6079H53.4684C52.77 22.6079 52.2019 22.0399 52.2019 21.3415V20.1515C52.2019 14.9902 48.4652 11.1942 48.3061 11.0351C48.0126 10.7415 47.5799 10.6362 47.1836 10.7606C41.0036 12.7123 32.2899 14.3571 25.8748 11.1112C23.592 9.95609 22.244 8.4882 21.5351 7.50807C23.8983 6.73145 25.7302 5.90065 27.3766 5.15402ZM45.2158 46.17L43.0896 53.46C41.5316 54.2949 39.7812 54.735 38 54.735C36.2198 54.735 34.4678 54.2954 32.9105 53.4612L30.7839 46.17V43.4081C32.9666 44.4675 35.4149 45.0627 37.9998 45.0627C40.5844 45.0627 43.0327 44.4672 45.2158 43.407V46.17ZM37.9998 42.836C30.0843 42.836 23.6446 36.3962 23.6446 28.4807C23.6446 27.8657 23.1462 27.3674 22.5314 27.3674C21.9165 27.3674 21.4181 27.8657 21.4181 28.4807V28.5573H20.7466C20.2215 28.5573 19.7182 28.3337 19.3657 27.9441C19.0085 27.5494 18.8414 27.0365 18.8951 26.4999C18.9888 25.566 19.8767 24.8343 20.9167 24.8343H22.5314C24.4575 24.8343 26.0244 23.2673 26.0244 21.3413V17.1394C26.0244 16.5244 25.5259 16.0261 24.9111 16.0261C24.2963 16.0261 23.7978 16.5244 23.7978 17.1394V21.3413C23.7978 22.0397 23.2296 22.6078 22.5314 22.6078H21.2649V15.7885C21.2649 13.1981 21.9611 11.91 22.2826 11.4532C22.9627 11.9897 23.7604 12.5211 24.6941 13.0077C27.2171 14.3227 30.2199 15.0509 33.6191 15.172C37.6033 15.3152 42.1571 14.6164 47.1625 13.0979C48.046 14.1678 49.9755 16.8793 49.9755 20.1513V21.3413C49.9755 23.2674 51.5426 24.8343 53.4685 24.8343H55.2533C55.7784 24.8343 56.2817 25.0579 56.6343 25.4475C56.9914 25.8422 57.1585 26.3549 57.1048 26.8915C57.0113 27.8256 56.1235 28.5573 55.0835 28.5573H54.5812V28.4923C54.5812 27.8776 54.0831 27.3793 53.4684 27.379C53.4682 27.379 53.4681 27.379 53.4679 27.379C52.8534 27.379 52.3551 27.8768 52.3547 28.4914C52.3486 36.401 45.9091 42.836 37.9998 42.836Z" fill="#FA7212"/>
<path d="M60.6077 67.2286H58.7463V65.3672C58.7463 64.7522 58.248 64.2539 57.633 64.2539C57.018 64.2539 56.5197 64.7522 56.5197 65.3672V67.2286H54.6582C54.0432 67.2286 53.5449 67.7269 53.5449 68.3419C53.5449 68.9568 54.0432 69.4551 54.6582 69.4551H56.5197V71.3165C56.5197 71.9315 57.018 72.4298 57.633 72.4298C58.248 72.4298 58.7463 71.9315 58.7463 71.3165V69.4551H60.6077C61.2227 69.4551 61.721 68.9568 61.721 68.3419C61.721 67.7269 61.2224 67.2286 60.6077 67.2286Z" fill="#FA7212"/>
</svg>
