<svg width="76" height="76" viewBox="0 0 76 76" fill="none" xmlns="http://www.w3.org/2000/svg">
<path d="M57.8164 39.6328C48.2897 39.6328 40.4516 46.9972 39.6937 56.332H36.3063C35.9897 52.432 34.4369 48.8765 32.0416 46.0578L46.0514 32.0478C47.4589 33.245 49.0295 34.2148 50.7388 34.9376C52.9803 35.8862 55.3612 36.3672 57.8164 36.3672C60.2716 36.3672 62.6525 35.8862 64.8939 34.9377C67.0596 34.0219 69.0041 32.7112 70.6741 31.0412C72.344 29.3713 73.6547 27.4268 74.5705 25.2611C75.5191 23.0197 76 20.6388 76 18.1836C76 16.0001 75.617 13.8626 74.8598 11.8349C74.6448 11.256 74.085 10.8686 73.4691 10.8686C73.2925 10.8686 73.1188 10.8998 72.9511 10.9621C72.58 11.1002 72.2846 11.3748 72.1197 11.7355C71.9551 12.0962 71.9401 12.4999 72.0783 12.871C72.7106 14.5677 73.0312 16.3548 73.0312 18.1836C73.0312 21.3947 72.0409 24.4543 70.2078 27.0158C68.5459 24.1077 66.0361 21.9046 63.0871 20.7002C64.8552 19.2016 65.9805 16.9666 65.9805 14.4727C65.9805 9.97099 62.3181 6.30859 57.8164 6.30859C53.3147 6.30859 49.6523 9.97099 49.6523 14.4727C49.6523 16.966 50.7771 19.2005 52.5445 20.6993C49.595 21.903 47.0848 24.1054 45.4226 27.0127C43.591 24.4517 42.6016 21.3934 42.6016 18.1836C42.6016 14.1209 44.1854 10.3001 47.0577 7.42484C49.9329 4.55258 53.7537 2.96875 57.8164 2.96875C59.9478 2.96875 62.0098 3.4007 63.9439 4.25273C64.1338 4.33586 64.3358 4.37891 64.542 4.37891C65.1298 4.37891 65.6643 4.03156 65.9016 3.49273C66.2312 2.74312 65.8898 1.86586 65.1416 1.53633C62.8277 0.516563 60.3651 0 57.8194 0H57.8164C55.3612 0 52.9803 0.480938 50.7388 1.42945C48.5731 2.34531 46.6287 3.65602 44.9588 5.32594C43.2888 6.99586 41.9781 8.94039 41.0623 11.1061C40.1138 13.3475 39.6328 15.7284 39.6328 18.1836C39.6328 20.6388 40.1138 23.0197 41.0623 25.2611C41.7852 26.9704 42.7549 28.5411 43.9522 29.9486L29.9424 43.9586C27.1235 41.5632 23.5682 40.0104 19.6681 39.6938V36.3063C29.0028 35.5484 36.3672 27.7103 36.3672 18.1836C36.3672 8.15709 28.2101 0 18.1836 0C8.15709 0 0 8.15709 0 18.1836C0 27.7103 7.36443 35.5484 16.6992 36.3063V39.6938C7.36443 40.4516 0 48.2897 0 57.8164C0 67.8429 8.15709 76 18.1836 76C27.7103 76 35.5484 68.6356 36.3063 59.3008H39.6938C40.4516 68.6356 48.2897 76 57.8164 76C67.8429 76 76 67.8429 76 57.8164C76 47.7899 67.8429 39.6328 57.8164 39.6328ZM52.6211 14.4727C52.6211 11.608 54.9517 9.27734 57.8164 9.27734C60.6811 9.27734 63.0117 11.608 63.0117 14.4727C63.0117 17.3268 60.698 19.65 57.8479 19.6672C57.8369 19.6672 57.8259 19.6666 57.8149 19.6666C57.8044 19.6666 57.794 19.6672 57.7836 19.6672C54.934 19.6493 52.6211 17.3264 52.6211 14.4727ZM57.7837 22.6358C57.7947 22.6358 57.8054 22.6367 57.8164 22.6367C57.8269 22.6367 57.8373 22.636 57.8477 22.636C62.2344 22.649 66.1645 25.269 68.1015 29.3946C65.2856 31.98 61.6603 33.3984 57.8164 33.3984C53.9713 33.3984 50.3433 31.9789 47.5282 29.392C49.4658 25.2673 53.3965 22.6483 57.7837 22.6358ZM12.9883 14.4727C12.9883 11.608 15.3189 9.27734 18.1836 9.27734C21.0483 9.27734 23.3789 11.608 23.3789 14.4727C23.3789 17.3268 21.0652 19.65 18.2151 19.6672C18.2041 19.6672 18.1931 19.6666 18.1821 19.6666C18.1716 19.6666 18.1612 19.6672 18.1508 19.6672C15.3012 19.6493 12.9883 17.3264 12.9883 14.4727ZM18.1836 22.6367C18.1941 22.6367 18.2045 22.636 18.2149 22.636C22.5993 22.649 26.5276 25.2661 28.4654 29.3881C25.7555 31.8768 22.1442 33.3984 18.1836 33.3984C14.2215 33.3984 10.6088 31.8756 7.89866 29.3851C9.8374 25.2644 13.7661 22.6483 18.1509 22.6358C18.1619 22.636 18.1726 22.6367 18.1836 22.6367ZM18.1836 2.96875C26.5731 2.96875 33.3984 9.79405 33.3984 18.1836C33.3984 21.471 32.3502 24.518 30.5707 27.0085C28.9088 24.104 26.4008 21.9036 23.4543 20.7002C25.2224 19.2014 26.3477 16.9666 26.3477 14.4727C26.3477 9.97099 22.6853 6.30859 18.1836 6.30859C13.6819 6.30859 10.0195 9.97099 10.0195 14.4727C10.0195 16.966 11.1442 19.2005 12.9117 20.6993C9.96476 21.902 7.45646 24.1016 5.79396 27.0052C4.01598 24.5153 2.96875 21.4696 2.96875 18.1836C2.96875 9.79405 9.79405 2.96875 18.1836 2.96875ZM18.1836 73.0312C9.79405 73.0312 2.96875 66.2059 2.96875 57.8164C2.96875 49.4269 9.79405 42.6016 18.1836 42.6016C26.5731 42.6016 33.3984 49.4269 33.3984 57.8164C33.3984 66.2059 26.5731 73.0312 18.1836 73.0312ZM47.5315 69.0179C49.4747 64.8883 53.4172 62.2695 57.8149 62.2695C62.2128 62.2695 66.1556 64.8895 68.0982 69.0208C65.3885 71.5096 61.777 73.0312 57.8164 73.0312C53.8543 73.0312 50.2416 71.5084 47.5315 69.0179ZM57.8164 59.3008C54.9517 59.3008 52.6211 56.9702 52.6211 54.1055C52.6211 51.2408 54.9517 48.9102 57.8164 48.9102C60.6811 48.9102 63.0117 51.2408 63.0117 54.1055C63.0117 56.9702 60.6811 59.3008 57.8164 59.3008ZM70.2035 66.6415C68.5416 63.7371 66.0332 61.537 63.0862 60.3339C64.8549 58.8351 65.9805 56.5998 65.9805 54.1055C65.9805 49.6038 62.3181 45.9414 57.8164 45.9414C53.3147 45.9414 49.6523 49.6038 49.6523 54.1055C49.6523 56.5994 50.7775 58.8341 52.5454 60.3329C49.598 61.5352 47.0893 63.7346 45.4268 66.638C43.6488 64.1482 42.6016 61.1024 42.6016 57.8164C42.6016 49.4269 49.4269 42.6016 57.8164 42.6016C66.2059 42.6016 73.0312 49.4269 73.0312 57.8164C73.0312 61.1039 71.983 64.151 70.2035 66.6415Z" fill="#FA7212"/>
<path d="M26.0578 49.9018C25.3757 49.4471 24.4542 49.6313 23.9994 50.3134L16.2355 61.9592L12.3046 56.9052C11.8011 56.258 10.8686 56.1415 10.2216 56.6449C9.57441 57.1482 9.45788 58.0807 9.96124 58.7279L15.1565 65.4076C15.4383 65.7699 15.8711 65.9807 16.3282 65.9807C16.3463 65.9807 16.3644 65.9804 16.3825 65.9797C16.8593 65.9623 17.2986 65.7168 17.5633 65.3197L26.4696 51.9603C26.9242 51.2781 26.7399 50.3564 26.0578 49.9018Z" fill="#FA7212"/>
<path d="M69.9619 8.20703C70.7817 8.20703 71.4463 7.54245 71.4463 6.72266C71.4463 5.90286 70.7817 5.23828 69.9619 5.23828C69.1421 5.23828 68.4775 5.90286 68.4775 6.72266C68.4775 7.54245 69.1421 8.20703 69.9619 8.20703Z" fill="#FA7212"/>
</svg>
